<?xml version="1.0" encoding="UTF-8"?>
<svg version="1.1" xmlns="http://www.w3.org/2000/svg" width="1024" height="1024">
<path d="M0 0 C337.92 0 675.84 0 1024 0 C1024 337.92 1024 675.84 1024 1024 C686.08 1024 348.16 1024 0 1024 C0 686.08 0 348.16 0 0 Z " fill="#FEFEFE" transform="translate(0,0)"/>
<path d="M0 0 C5.48661901 1.08260268 10.79659082 2.87071362 16.1015625 4.61425781 C17.22616379 4.97746124 18.35076508 5.34066467 19.50944519 5.71487427 C23.16749963 6.89818758 26.82211294 8.09173734 30.4765625 9.28613281 C32.99633627 10.10516084 35.51627562 10.92367963 38.03637695 11.74169922 C41.84755838 12.97910355 45.65843968 14.21740379 49.46809387 15.45950317 C57.26647506 18.00051999 65.07511247 20.50600798 72.89453125 22.98144531 C75.62913063 23.85186825 78.36337138 24.72340511 81.09741211 25.59558105 C82.79713563 26.13566727 84.49797441 26.67225715 86.19995117 27.2052002 C88.53892524 27.93844169 90.87328763 28.68487764 93.20703125 29.43457031 C93.87840622 29.64115265 94.54978119 29.84773499 95.24150085 30.06057739 C99.35068036 31.39903484 102.31273078 33.09103966 105.4765625 36.03613281 C106.76988396 38.62277574 106.61596488 40.50409893 106.63478088 43.40176392 C106.6445697 44.54042404 106.65435852 45.67908417 106.66444397 46.85224915 C106.67019943 48.10740829 106.6759549 49.36256744 106.68188477 50.65576172 C106.69178436 51.9727858 106.70168396 53.28980988 106.71188354 54.64674377 C106.7389633 58.26425904 106.7599562 61.88178739 106.77988553 65.49934816 C106.80172618 69.2776965 106.82912425 73.05600436 106.85594177 76.83432007 C106.90589469 83.99179833 106.95082386 91.14929902 106.99396414 98.30682123 C107.04331432 106.45426043 107.09824066 114.60165902 107.15364373 122.74905896 C107.26750367 139.51137949 107.37433395 156.27373723 107.4765625 173.03613281 C111.04902962 171.35337817 113.3838003 169.38768594 116.19750977 166.58984375 C117.59399498 165.20765656 117.59399498 165.20765656 119.01869202 163.79754639 C120.02711393 162.788863 121.03519796 161.77984173 122.04296875 160.77050781 C123.08359744 159.73376848 124.12444863 158.69725245 125.16551208 157.66094971 C127.34512811 155.48878881 129.52083665 153.31280156 131.6940918 151.13427734 C134.47194119 148.35063992 137.26097366 145.57851933 140.0532999 142.80941391 C142.20589166 140.67159576 144.35147198 138.52684583 146.49513054 136.38007355 C147.52018585 135.35552981 148.54759109 134.33333135 149.577425 133.313591 C151.02048149 131.88294835 152.45296166 130.44166177 153.88500977 129 C154.70123306 128.18440613 155.51745636 127.36881226 156.3584137 126.52850342 C160.86839568 121.22172491 162.09930951 116.58903715 161.88671875 109.78613281 C161.11736573 104.62780396 158.75439481 100.82027185 154.65625 97.61035156 C153.4408059 96.78903683 152.21967511 95.97605541 150.9921875 95.17285156 C148.6674266 93.42928089 148.07803802 91.84301857 147.4765625 89.03613281 C146.78863437 82.95943437 148.50157928 79.14938521 151.4765625 74.03613281 C161.2480542 74.35134222 167.9725213 78.14114809 174.7890625 85.09863281 C183.03545388 95.16826285 184.71918885 106.38252825 183.72900391 118.984375 C181.67861073 135.64927274 167.29672959 147.37015922 156.11328125 158.56738281 C155.14916716 159.53472139 154.18512339 160.50213005 153.22114563 161.46960449 C151.22201617 163.47465663 149.22089796 165.47769863 147.21850586 167.47949219 C144.65694303 170.04095239 142.10239167 172.60928857 139.54944134 175.17932892 C137.57028806 177.16959361 135.58661373 179.15530398 133.60163307 181.13975525 C132.20049577 182.54263751 130.80390171 183.95005265 129.40739441 185.35754395 C128.55583267 186.20602905 127.70427094 187.05451416 126.8269043 187.92871094 C126.08127731 188.67576294 125.33565033 189.42281494 124.56742859 190.19250488 C120.65940076 193.63842105 117.50116303 194.53099531 112.23193359 194.38916016 C106.19681681 193.61592085 100.50564727 191.35234756 94.7890625 189.34863281 C93.28033494 188.83115187 91.77111914 188.3150927 90.26147461 187.80029297 C86.76525921 186.60628046 83.27175452 185.40466397 79.77929688 184.19970703 C72.36089209 181.6462706 64.92630083 179.14099949 57.4921875 176.63378906 C54.67271731 175.68236691 51.85332234 174.73072198 49.03393555 173.77905273 C47.98188447 173.42394985 47.98188447 173.42394985 46.90857983 173.06167316 C39.99446925 170.72770895 33.08078549 168.39250223 26.16965485 166.04972649 C24.3054652 165.41814155 22.44079362 164.7879797 20.57611084 164.15785217 C18.88726776 163.58495705 18.88726776 163.58495705 17.16430664 163.00048828 C16.18256973 162.66806122 15.20083282 162.33563416 14.18934631 161.99313354 C11.58706447 161.07511508 9.03032357 160.08076488 6.4765625 159.03613281 C6.17953875 164.08553664 6.31162864 167.02442715 9.4765625 171.03613281 C11.87751065 172.24310656 13.99867062 173.12972377 16.52246094 173.96313477 C17.22857388 174.21158551 17.93468681 174.46003626 18.66219711 174.71601582 C20.92784814 175.50753403 23.20118326 176.27308263 25.4765625 177.03613281 C26.93685609 177.53710344 28.39686056 178.03891769 29.85656738 178.54159546 C33.66648465 179.84576447 37.48466301 181.12384558 41.30606842 182.39391136 C43.81317551 183.22771034 46.31872607 184.06604606 48.82391357 184.90559387 C55.93234248 187.28730048 63.04253622 189.66366123 70.15576172 192.03100586 C74.5399973 193.49046892 78.92176932 194.95712807 83.30205536 196.42840004 C84.96130746 196.98412999 86.62148355 197.53710922 88.2826004 198.08724022 C90.59340025 198.85273676 92.90096016 199.62733394 95.20800781 200.40405273 C95.88849686 200.62695984 96.5689859 200.84986694 97.27009583 201.07952881 C100.78009062 202.27254061 103.81305341 203.4044798 106.4765625 206.03613281 C107.22426604 212.01776112 107.22426604 212.01776112 105.20797825 214.76394367 C102.41101984 216.81905962 100.20348608 216.0210748 96.91522026 215.52838707 C93.07618932 214.75346106 89.42206901 213.62003492 85.71899414 212.35571289 C84.89493576 212.08235107 84.07087738 211.80898926 83.22184753 211.52734375 C80.52361188 210.6293616 77.83008425 209.71814027 75.13671875 208.80566406 C73.24554946 208.17082534 71.35422493 207.53644891 69.4627533 206.9025116 C65.50767234 205.57448196 61.55497223 204.23963998 57.60375977 202.90014648 C52.56413944 201.19247884 47.51838877 199.50381358 42.47058964 197.82050037 C38.56503614 196.51537172 34.66329155 195.19914194 30.76254082 193.87973595 C28.90480322 193.2530297 27.04584773 192.62992071 25.18562508 192.01062965 C-0.34863518 183.49387222 -0.34863518 183.49387222 -5.68359375 173.86816406 C-7.4918854 169.92356507 -7.6552886 166.78527419 -7.67060852 162.48294067 C-7.67428521 161.81420264 -7.6779619 161.14546461 -7.68175 160.45646179 C-7.69278117 158.21103839 -7.69662967 155.96566128 -7.70043945 153.72021484 C-7.70670441 152.11214043 -7.71335124 150.50406747 -7.72035217 148.89599609 C-7.7377559 144.52408166 -7.74831172 140.15217815 -7.7565577 135.78023767 C-7.76170808 133.04960471 -7.76778372 130.31897514 -7.77406883 127.58834457 C-7.79311721 119.04697356 -7.80735039 110.50561119 -7.8156808 101.96422303 C-7.82545986 92.10019356 -7.85179823 82.2363881 -7.89218169 72.3724376 C-7.92231816 64.75027941 -7.93714723 57.12818555 -7.94046181 49.50596893 C-7.94281466 44.95228442 -7.95180573 40.39883933 -7.97692299 35.84521866 C-8.00016636 31.56223803 -8.00445215 27.2796551 -7.99416161 22.99662781 C-7.99366526 21.4248561 -8.0000148 19.85306505 -8.01371765 18.281353 C-8.03138464 16.13485443 -8.02435799 13.98979131 -8.01118469 11.84329224 C-8.01476722 10.04196177 -8.01476722 10.04196177 -8.01842213 8.2042408 C-7.20679457 3.00948605 -5.42060078 0.0555882 0 0 Z " fill="#D20100" transform="translate(127.5234375,405.9638671875)"/>
<path d="M0 0 C2.5546113 1.69290659 4.93260893 3.4829586 7.3046875 5.421875 C7.95308594 5.94523437 8.60148437 6.46859375 9.26953125 7.0078125 C17.12542272 14.05576765 21.75513613 24.96784152 22.640625 35.3671875 C22.92269983 48.41082365 20.88252222 60.08810705 12.3046875 70.421875 C10.64421939 72.09471726 8.97648634 73.76035636 7.3046875 75.421875 C5.95548058 76.78718225 4.60631526 78.15253161 3.25857544 79.51928711 C1.19556696 81.60941924 -0.87310116 83.69391577 -2.94189453 85.77832031 C-4.02573419 86.87223464 -5.10777432 87.96793492 -6.18798828 89.06542969 C-17.27531207 100.32478071 -17.27531207 100.32478071 -23.6953125 104.421875 C-23.66050781 103.68324219 -23.62570312 102.94460938 -23.58984375 102.18359375 C-23.41389642 95.58975816 -24.01400832 90.14945132 -26.13671875 83.89453125 C-26.80729225 80.9261884 -26.57513751 79.33359265 -25.6953125 76.421875 C-23.91699219 74.26879883 -23.91699219 74.26879883 -21.6171875 72.12890625 C-20.78574219 71.33291016 -19.95429688 70.53691406 -19.09765625 69.71679688 C-17.34749839 68.07876253 -15.59494123 66.44328748 -13.83984375 64.81054688 C-7.44665699 58.67840703 -2.72768408 52.81449833 -1.03125 43.953125 C-1.14022207 35.49689219 -2.63369553 28.96521863 -8.375 22.54296875 C-14.26184707 17.11398756 -19.91181111 16.21426 -27.71875 15.9609375 C-35.56979242 17.17671572 -40.92619523 22.0537152 -46.3359375 27.53125 C-47.02540466 28.21689026 -47.71487183 28.90253052 -48.42523193 29.60894775 C-49.87206454 31.05307317 -51.3139176 32.50220313 -52.75097656 33.95605469 C-54.93911307 36.16561487 -57.1477793 38.35301166 -59.359375 40.5390625 C-60.76951337 41.95184436 -62.17841029 43.36586667 -63.5859375 44.78125 C-64.24015686 45.42737244 -64.89437622 46.07349487 -65.56842041 46.73919678 C-73.02100747 54.34468998 -76.07984279 61.84992397 -75.98046875 72.46875 C-75.30405667 79.47378473 -72.30978063 85.19214445 -67.6953125 90.421875 C-65.81296705 93.5257425 -65.42351488 95.8714203 -65.4453125 99.484375 C-65.43757813 100.77021484 -65.43757813 100.77021484 -65.4296875 102.08203125 C-65.6953125 104.421875 -65.6953125 104.421875 -67.6953125 107.421875 C-73.06489477 108.65843855 -78.08429726 107.40960232 -82.78515625 104.74609375 C-92.52171095 97.99621227 -97.6462768 88.32013493 -100.25390625 76.99609375 C-102.39771445 64.49370788 -99.33669589 52.93444281 -92.75585938 42.24560547 C-88.43491191 36.32426917 -83.01489865 31.37685427 -77.7578125 26.296875 C-75.45278701 24.04858564 -73.1535255 21.79447181 -70.85546875 19.5390625 C-70.30739563 19.00357788 -69.75932251 18.46809326 -69.19464111 17.91638184 C-65.62825355 14.41088482 -62.30696894 10.76672051 -59.06713867 6.95556641 C-45.0875142 -8.67354926 -17.20899278 -10.07598997 0 0 Z " fill="#D20201" transform="translate(343.6953125,417.578125)"/>
<path d="M0 0 C5.94 0 11.88 0 18 0 C18 11.55 18 23.1 18 35 C28.56 35 39.12 35 50 35 C50 23.45 50 11.9 50 0 C55.94 0 61.88 0 68 0 C68 29.37 68 58.74 68 89 C62.06 89 56.12 89 50 89 C50 76.79 50 64.58 50 52 C39.44 52 28.88 52 18 52 C18 64.21 18 76.42 18 89 C12.06 89 6.12 89 0 89 C0 59.63 0 30.26 0 0 Z " fill="#D20303" transform="translate(399,463)"/>
<path d="M0 0 C5.94 0 11.88 0 18 0 C18.0093457 1.87703613 18.01869141 3.75407227 18.02832031 5.68798828 C18.06389921 11.90275415 18.11772967 18.11715435 18.18390274 24.33166695 C18.22334437 28.09808166 18.25554874 31.86426376 18.27099609 35.63085938 C18.28618507 39.26863795 18.32066881 42.90577688 18.36830902 46.54327011 C18.38310002 47.92821556 18.39103971 49.31325235 18.39188385 50.69827652 C18.14448214 60.73344457 18.14448214 60.73344457 23 69 C27.81518707 72.35943284 32.3215254 72.70238972 38 72 C42.3317639 70.79278711 44.36649043 69.80047498 47.16113281 66.26928711 C50.22356291 60.56711846 49.60545524 54.05565033 49.609375 47.75390625 C49.62437385 46.37383601 49.64110457 44.99378362 49.65948486 43.61375427 C49.70298036 40.00199511 49.72311739 36.390478 49.73822021 32.77850342 C49.75785612 29.08461296 49.79981852 25.39098147 49.83984375 21.69726562 C49.91495286 14.46488092 49.96329382 7.23270024 50 0 C55.94 0 61.88 0 68 0 C68.09079429 8.28497916 68.16399774 16.56956389 68.20724869 24.85490894 C68.2280193 28.70318575 68.25614072 32.55110108 68.30175781 36.39916992 C68.34559623 40.12098877 68.369216 43.84246254 68.37950897 47.56451988 C68.38683294 48.97614655 68.40113267 50.38775687 68.42292023 51.79923439 C68.58374146 62.66148818 67.66698239 73.26604117 59.82421875 81.50390625 C50.48045473 89.16699323 38.72615429 90.9810116 27 90 C18.02997756 88.34319932 9.97549698 84.33202784 4.3474884 77.00559998 C-0.99048679 69.06056469 -0.39682329 59.86747065 -0.29296875 50.68359375 C-0.28736283 49.21672503 -0.28309745 47.74985063 -0.28010559 46.28297424 C-0.26873501 42.45079624 -0.23933665 38.61896767 -0.20599365 34.78692627 C-0.17512323 30.86516037 -0.16156425 26.94333716 -0.14648438 23.02148438 C-0.11445793 15.34747966 -0.0617555 7.67383361 0 0 Z " fill="#D10403" transform="translate(481,463)"/>
<path d="M0 0 C5.40751202 4.43525229 7.56731909 9.45259684 8.375 16.3125 C8.4575 17.6325 8.54 18.9525 8.625 20.3125 C2.685 20.3125 -3.255 20.3125 -9.375 20.3125 C-10.365 18.0025 -11.355 15.6925 -12.375 13.3125 C-16.03179994 10.52158081 -20.29763118 10.84462161 -24.734375 10.93359375 C-27.63707029 11.15656149 -27.63707029 11.15656149 -30.5625 13.4375 C-32.72163968 16.86234225 -33.20130866 18.34621841 -32.375 22.3125 C-28.15230955 27.99965543 -22.76612767 29.01588089 -16.125 30.75 C-5.63450101 33.49106587 3.30341114 37.11746166 9.625 46.3125 C12.43644662 52.20315005 12.62470431 58.76200375 10.8671875 65.00390625 C7.50807719 73.87777639 3.20737411 78.35460903 -5.375 82.3125 C-14.74765661 86.22800575 -28.21249675 85.87432869 -37.75 82.625 C-45.10112583 79.30550724 -49.02063636 75.13236554 -52.40625 67.89453125 C-53.75096309 64.31043708 -54.1631545 61.12571899 -54.375 57.3125 C-51.18675432 55.71837716 -47.74603338 56.21075265 -44.25 56.25 C-43.49589844 56.25451172 -42.74179687 56.25902344 -41.96484375 56.26367188 C-40.10152873 56.27546501 -38.23825445 56.29340058 -36.375 56.3125 C-36.14425781 56.85519531 -35.91351562 57.39789062 -35.67578125 57.95703125 C-35.34964844 58.67246094 -35.02351562 59.38789062 -34.6875 60.125 C-34.37425781 60.83269531 -34.06101562 61.54039062 -33.73828125 62.26953125 C-31.93974974 64.96475183 -30.31606749 65.96277497 -27.375 67.3125 C-21.96404894 68.0642091 -15.57177115 68.46610338 -10.5625 65.9375 C-7.66804425 62.4641531 -7.77165293 60.06088694 -7.87109375 55.65234375 C-8.47903929 52.82940284 -9.1607724 52.12314768 -11.375 50.3125 C-13.72018927 49.34854582 -13.72018927 49.34854582 -16.3828125 48.6640625 C-17.37023437 48.38046875 -18.35765625 48.096875 -19.375 47.8046875 C-21.43455902 47.23315987 -23.49444773 46.66281879 -25.5546875 46.09375 C-35.22248964 43.31363073 -43.63788332 39.9473468 -49.375 31.3125 C-52.49975012 25.20503386 -52.36130886 17.3576148 -50.7578125 10.78125 C-48.17117279 4.09718986 -43.61452348 -0.30964352 -37.41796875 -3.78515625 C-25.90455804 -8.51820272 -10.21647234 -6.86711602 0 0 Z " fill="#D10303" transform="translate(612.375,467.6875)"/>
<path d="M0 0 C5.94 0 11.88 0 18 0 C18.33 16.5 18.66 33 19 50 C28.53898969 37.52952794 28.53898969 37.52952794 38 25 C40.51708984 24.09179688 40.51708984 24.09179688 42.9609375 24.21875 C43.84394531 24.24453125 44.72695313 24.2703125 45.63671875 24.296875 C46.99216797 24.39742188 46.99216797 24.39742188 48.375 24.5 C49.30183594 24.53609375 50.22867188 24.5721875 51.18359375 24.609375 C53.46005061 24.70324951 55.72783215 24.8342879 58 25 C56.18416436 28.85974976 53.72041005 31.86269948 50.9375 35.0625 C49.94974809 36.21287862 48.96278256 37.36393286 47.9765625 38.515625 C47.4805957 39.09376953 46.98462891 39.67191406 46.47363281 40.26757812 C42.91273984 44.45381016 39.46323104 48.73295731 36 53 C37.67226728 56.62525221 39.82508761 59.81997328 42.0625 63.12109375 C42.86731412 64.31566991 43.6719976 65.51033409 44.4765625 66.70507812 C45.73876208 68.57357553 47.00241313 70.44105607 48.26855469 72.30688477 C49.49565312 74.11721306 50.71689436 75.93138371 51.9375 77.74609375 C52.66839844 78.82560303 53.39929688 79.9051123 54.15234375 81.01733398 C55.78110722 83.64664203 56.97182543 86.09345546 58 89 C51.06360766 90.56346945 43.7460023 91.73709281 37 89 C30.83071357 83.15580619 27.06377886 75.21920243 23.38427734 67.65722656 C21.91460559 64.66042998 21.91460559 64.66042998 19 61 C18.67 70.24 18.34 79.48 18 89 C12.06 89 6.12 89 0 89 C0 59.63 0 30.26 0 0 Z " fill="#D10202" transform="translate(862,462)"/>
<path d="M0 0 C6.10062498 5.24772207 9.41914636 11.45705177 10.26226807 19.50276184 C10.3440693 22.17489843 10.33815242 24.83092838 10.29296875 27.50390625 C10.28872391 28.4677977 10.28447906 29.43168915 10.28010559 30.42478943 C10.26345681 33.47099015 10.22583111 36.51650288 10.1875 39.5625 C10.1724353 41.64126641 10.15875004 43.72004331 10.14648438 45.79882812 C10.11359864 50.86614616 10.06191324 55.93295687 10 61 C4.06 61 -1.88 61 -8 61 C-8.01458252 59.75387939 -8.02916504 58.50775879 -8.04418945 57.22387695 C-8.102243 52.59240288 -8.17947576 47.96141138 -8.26245117 43.33032227 C-8.29566727 41.32747236 -8.32370952 39.3245296 -8.34643555 37.3215332 C-8.38004234 34.43921406 -8.43236148 31.55774332 -8.48828125 28.67578125 C-8.49467117 27.78288895 -8.5010611 26.88999664 -8.50764465 25.970047 C-8.62017675 21.1917411 -8.86110378 17.85823653 -12 14 C-15.9256927 11.71001259 -19.52410983 11.52885367 -24 12 C-26.60847629 13.49745861 -28.87028902 14.87028902 -31 17 C-31.12197808 18.38050858 -31.17768899 19.76697647 -31.20532227 21.15258789 C-31.22526749 22.03342545 -31.24521271 22.914263 -31.26576233 23.8217926 C-31.29083107 25.25772011 -31.29083107 25.25772011 -31.31640625 26.72265625 C-31.33718735 27.69786728 -31.35796844 28.67307831 -31.37937927 29.67784119 C-31.44498412 32.8059863 -31.50381028 35.93421822 -31.5625 39.0625 C-31.60567483 41.1777435 -31.64928877 43.29297809 -31.69335938 45.40820312 C-31.80067661 50.60537884 -31.90191284 55.80264222 -32 61 C-37.94 61 -43.88 61 -50 61 C-50 39.88 -50 18.76 -50 -3 C-44.39 -3 -38.78 -3 -33 -3 C-32.67 -1.35 -32.34 0.3 -32 2 C-31.154375 1.38125 -30.30875 0.7625 -29.4375 0.125 C-20.42486171 -5.7993916 -8.9883087 -5.91994358 0 0 Z " fill="#D10302" transform="translate(842,490)"/>
<path d="M0 0 C21.12 0 42.24 0 64 0 C64 5.28 64 10.56 64 16 C56.41 16 48.82 16 41 16 C41 40.09 41 64.18 41 89 C35.06 89 29.12 89 23 89 C23 64.91 23 40.82 23 16 C15.41 16 7.82 16 0 16 C0 10.72 0 5.44 0 0 Z " fill="#D10000" transform="translate(629,463)"/>
<path d="M0 0 C5.94 0 11.88 0 18 0 C18 23.76 18 47.52 18 72 C28.56 72 39.12 72 50 72 C50 77.28 50 82.56 50 88 C33.5 88 17 88 0 88 C0 58.96 0 29.92 0 0 Z " fill="#D10404" transform="translate(703,463)"/>
<path d="M0 0 C5.61 0 11.22 0 17 0 C17 21.12 17 42.24 17 64 C11.39 64 5.78 64 0 64 C0 42.88 0 21.76 0 0 Z " fill="#D10101" transform="translate(763,487)"/>
<path d="M0 0 C2.75329021 1.79562405 4.52627461 3.05254922 6 6 C6.39447548 10.18144011 6.45035186 12.30946048 4.125 15.875 C1.21289342 18.78710658 0.3997223 18.96068305 -3.8125 19.375 C-7.16084564 19.30791111 -8.03191618 18.97938747 -11 17.0625 C-13.6601163 12.98919692 -13.98443537 9.74480111 -13 5 C-9.31754563 0.09006083 -5.99877304 -0.5083706 0 0 Z " fill="#D00403" transform="translate(775,462)"/>
<path d="M0 0 C21.12 0 42.24 0 64 0 C64 0.66 64 1.32 64 2 C43.21 2.33 22.42 2.66 1 3 C0.67 2.01 0.34 1.02 0 0 Z " fill="#CF2020" transform="translate(629,463)"/>
<path d="M0 0 C2 1 2 1 3.11279297 3.91821289 C4.35193547 8.68932836 4.24991456 13.40876454 4.1953125 18.30859375 C4.1924826 19.27531509 4.18965271 20.24203644 4.18673706 21.23805237 C4.17560407 24.30466452 4.15051224 27.37097715 4.125 30.4375 C4.11496131 32.52538639 4.10583701 34.61327738 4.09765625 36.70117188 C4.07568727 41.80089544 4.04120507 46.90039705 4 52 C3.01 52 2.02 52 1 52 C1.00222061 51.45178085 1.00444122 50.90356171 1.00672913 50.33872986 C1.02892226 44.61197565 1.04396499 38.88523374 1.05493164 33.15844727 C1.05994778 31.02367659 1.06676224 28.88890933 1.07543945 26.75415039 C1.08762435 23.67853958 1.09325562 20.60297437 1.09765625 17.52734375 C1.10539818 16.10505714 1.10539818 16.10505714 1.11329651 14.65403748 C1.1137157 9.65687882 0.85595812 4.92546142 0 0 Z " fill="#D43131" transform="translate(848,499)"/>
<path d="M0 0 C5.94 0 11.88 0 18 0 C17.67 0.66 17.34 1.32 17 2 C12.05 2 7.1 2 2 2 C2 13.55 2 25.1 2 37 C1.67 37 1.34 37 1 37 C0.67 24.79 0.34 12.58 0 0 Z " fill="#CD1011" transform="translate(862,462)"/>
<path d="M0 0 C6.6 0 13.2 0 20 0 C19.34 1.32 18.68 2.64 18 4 C17.67 3.34 17.34 2.68 17 2 C11.06 2 5.12 2 -1 2 C-0.67 1.34 -0.34 0.68 0 0 Z " fill="#CE1515" transform="translate(900,487)"/>
<path d="M0 0 C2 2 2 2 2.125 5.125 C2.08375 6.07375 2.0425 7.0225 2 8 C-0.31 7.67 -2.62 7.34 -5 7 C-5 6.67 -5 6.34 -5 6 C-3.35 6 -1.7 6 0 6 C0 4.02 0 2.04 0 0 Z " fill="#CD1816" transform="translate(619,480)"/>
<path d="M0 0 C0.33 0.99 0.66 1.98 1 3 C-1.97 5.475 -1.97 5.475 -5 8 C-5.66 7.67 -6.32 7.34 -7 7 C-4.69 4.69 -2.38 2.38 0 0 Z " fill="#CF1111" transform="translate(252,564)"/>
<path d="M0 0 C0.99 0.33 1.98 0.66 3 1 C1.02 2.98 -0.96 4.96 -3 7 C-3.66 6.67 -4.32 6.34 -5 6 C-3.35 4.02 -1.7 2.04 0 0 Z " fill="#D11514" transform="translate(891,499)"/>
</svg>
