<?xml version="1.0" standalone="no"?>
<!DOCTYPE svg PUBLIC "-//W3C//DTD SVG 20010904//EN"
 "http://www.w3.org/TR/2001/REC-SVG-20010904/DTD/svg10.dtd">
<svg version="1.0" xmlns="http://www.w3.org/2000/svg"
 width="102.000000pt" height="50.000000pt" viewBox="0 0 102.000000 50.000000"
 preserveAspectRatio="xMidYMid meet">

<g transform="translate(0.000000,50.000000) scale(0.100000,-0.100000)"
fill="#000000" stroke="none">
<path d="M120 267 c0 -47 4 -89 10 -92 17 -10 103 -34 94 -26 -5 5 -26 14 -47
21 -21 7 -36 14 -33 17 3 3 27 -2 53 -11 l48 -17 33 35 c36 40 40 57 16 77
-13 11 -14 9 -9 -12 5 -19 -1 -31 -25 -54 l-30 -29 0 72 c0 79 -3 83 -82 99
l-28 6 0 -86z"/>
<path d="M282 334 c-33 -23 -45 -50 -32 -74 6 -11 15 -20 21 -20 6 0 6 7 -1
19 -13 26 28 78 53 68 19 -7 23 -42 7 -52 -5 -3 -10 -11 -10 -17 0 -6 9 -3 20
7 22 20 26 55 8 73 -16 16 -39 15 -66 -4z"/>
<g transform="translate(410, 255) scale(1.3) translate(-410, -255)">
    <path d="M401 255 c0 -40 2 -45 9 -27 5 12 16 22 24 22 8 0 17 -10 19 -22 2
-13 4 0 4 27 0 28 -2 40 -4 28 -2 -13 -11 -23 -19 -23 -8 0 -19 10 -24 23 -7
17 -9 12 -9 -28z"/>
</g>
<path d="M481 262 c-1 -46 18 -64 48 -45 18 11 28 83 12 83 -6 0 -11 -16 -11
-35 0 -48 -25 -46 -38 3 l-10 37 -1 -43z"/>
<path d="M564 285 c-7 -18 3 -35 22 -35 8 0 14 -5 14 -11 0 -7 -9 -9 -21 -6
-13 3 -19 1 -16 -6 6 -20 46 -20 54 -1 4 11 -2 23 -18 35 -20 15 -21 19 -6 19
9 0 17 5 17 10 0 16 -40 12 -46 -5z"/>
<path d="M630 290 c0 -5 5 -10 10 -10 6 0 10 -16 10 -35 0 -19 5 -35 10 -35 6
0 10 16 10 35 0 19 5 35 10 35 6 0 10 5 10 10 0 6 -13 10 -30 10 -16 0 -30 -4
-30 -10z"/>
<path d="M700 255 c0 -41 2 -45 25 -45 14 0 25 5 25 10 0 6 -7 10 -15 10 -10
0 -15 11 -15 35 0 19 -4 35 -10 35 -5 0 -10 -20 -10 -45z"/>
<path d="M860 255 c0 -25 5 -45 10 -45 6 0 10 6 10 13 0 8 3 7 10 -3 5 -8 12
-11 16 -7 4 3 2 13 -4 20 -9 10 -8 17 1 27 10 10 9 12 -5 7 -13 -5 -18 -1 -18
13 0 11 -4 20 -10 20 -5 0 -10 -20 -10 -45z"/>
<path d="M760 240 c0 -16 5 -30 10 -30 6 0 10 14 10 30 0 17 -4 30 -10 30 -5
0 -10 -13 -10 -30z"/>
<path d="M791 238 c1 -29 2 -30 8 -9 9 34 31 39 31 7 0 -14 5 -26 11 -26 6 0
9 12 7 28 -2 21 -9 28 -30 30 -26 3 -28 1 -27 -30z"/>
</g>
</svg>
